<svg width="227" height="227" viewBox="0 0 227 227" fill="none" xmlns="http://www.w3.org/2000/svg">
<g filter="url(#filter0_d_2124_796)">
<path d="M178.823 43.9021C173.331 44.3819 167.621 43.9974 161.897 42.6356C141.088 37.6852 126.271 21.2919 123.672 2.68149C119.677 2.23126 115.615 2 111.5 2C52.1294 2 4 50.1294 4 109.5C4 168.871 52.1294 217 111.5 217C170.871 217 219 168.871 219 109.5C219 97.4033 217.002 85.7732 213.318 74.9218C196.573 70.3842 183.941 58.3648 178.823 43.9021Z" fill="#FF7B7B"/>
<path d="M88.619 119V111.128C88.619 110.24 88.399 109.548 87.959 109.052C87.519 108.548 86.923 108.296 86.171 108.296C85.707 108.296 85.291 108.404 84.923 108.62C84.555 108.828 84.263 109.14 84.047 109.556C83.831 109.964 83.723 110.452 83.723 111.02L82.439 110.264C82.431 109.368 82.631 108.58 83.039 107.9C83.455 107.212 84.015 106.676 84.719 106.292C85.423 105.908 86.207 105.716 87.071 105.716C88.503 105.716 89.599 106.148 90.359 107.012C91.127 107.868 91.511 108.996 91.511 110.396V119H88.619ZM73.031 119V106.04H75.587V110.06H75.947V119H73.031ZM80.843 119V111.164C80.843 110.26 80.623 109.556 80.183 109.052C79.743 108.548 79.143 108.296 78.383 108.296C77.647 108.296 77.055 108.548 76.607 109.052C76.167 109.556 75.947 110.212 75.947 111.02L74.651 110.156C74.651 109.316 74.859 108.56 75.275 107.888C75.691 107.216 76.251 106.688 76.955 106.304C77.667 105.912 78.463 105.716 79.343 105.716C80.311 105.716 81.119 105.924 81.767 106.34C82.423 106.748 82.911 107.308 83.231 108.02C83.559 108.724 83.723 109.52 83.723 110.408V119H80.843ZM99.5009 119.372C98.5409 119.372 97.7489 119.212 97.1249 118.892C96.5009 118.572 96.0049 118.164 95.6369 117.668C95.2689 117.172 94.9969 116.644 94.8209 116.084C94.6449 115.524 94.5289 114.996 94.4729 114.5C94.4249 113.996 94.4009 113.588 94.4009 113.276V106.04H97.3289V112.28C97.3289 112.68 97.3569 113.132 97.4129 113.636C97.4689 114.132 97.5969 114.612 97.7969 115.076C98.0049 115.532 98.3089 115.908 98.7089 116.204C99.1169 116.5 99.6649 116.648 100.353 116.648C100.721 116.648 101.085 116.588 101.445 116.468C101.805 116.348 102.129 116.144 102.417 115.856C102.713 115.56 102.949 115.156 103.125 114.644C103.301 114.132 103.389 113.484 103.389 112.7L105.105 113.432C105.105 114.536 104.889 115.536 104.457 116.432C104.033 117.328 103.405 118.044 102.573 118.58C101.741 119.108 100.717 119.372 99.5009 119.372ZM103.737 119V114.98H103.389V106.04H106.293V119H103.737ZM118.628 119V112.76C118.628 112.352 118.6 111.9 118.544 111.404C118.488 110.908 118.356 110.432 118.148 109.976C117.948 109.512 117.644 109.132 117.236 108.836C116.836 108.54 116.292 108.392 115.604 108.392C115.236 108.392 114.872 108.452 114.512 108.572C114.152 108.692 113.824 108.9 113.528 109.196C113.24 109.484 113.008 109.884 112.832 110.396C112.656 110.9 112.568 111.548 112.568 112.34L110.852 111.608C110.852 110.504 111.064 109.504 111.488 108.608C111.92 107.712 112.552 107 113.384 106.472C114.216 105.936 115.24 105.668 116.456 105.668C117.416 105.668 118.208 105.828 118.832 106.148C119.456 106.468 119.952 106.876 120.32 107.372C120.688 107.868 120.96 108.396 121.136 108.956C121.312 109.516 121.424 110.048 121.472 110.552C121.528 111.048 121.556 111.452 121.556 111.764V119H118.628ZM109.64 119V106.04H112.22V110.06H112.568V119H109.64ZM130.105 119.36C128.769 119.36 127.629 119.064 126.685 118.472C125.741 117.872 125.017 117.056 124.513 116.024C124.017 114.992 123.765 113.824 123.757 112.52C123.765 111.192 124.025 110.016 124.537 108.992C125.057 107.96 125.793 107.152 126.745 106.568C127.697 105.976 128.829 105.68 130.141 105.68C131.613 105.68 132.857 106.052 133.873 106.796C134.897 107.532 135.565 108.54 135.877 109.82L132.997 110.6C132.773 109.904 132.401 109.364 131.881 108.98C131.361 108.588 130.769 108.392 130.105 108.392C129.353 108.392 128.733 108.572 128.245 108.932C127.757 109.284 127.397 109.772 127.165 110.396C126.933 111.02 126.817 111.728 126.817 112.52C126.817 113.752 127.093 114.748 127.645 115.508C128.197 116.268 129.017 116.648 130.105 116.648C130.873 116.648 131.477 116.472 131.917 116.12C132.365 115.768 132.701 115.26 132.925 114.596L135.877 115.256C135.477 116.576 134.777 117.592 133.777 118.304C132.777 119.008 131.553 119.36 130.105 119.36ZM147.246 119V112.76C147.246 112.352 147.218 111.9 147.162 111.404C147.106 110.908 146.974 110.432 146.766 109.976C146.566 109.512 146.262 109.132 145.854 108.836C145.454 108.54 144.91 108.392 144.222 108.392C143.854 108.392 143.49 108.452 143.13 108.572C142.77 108.692 142.442 108.9 142.146 109.196C141.858 109.484 141.626 109.884 141.45 110.396C141.274 110.9 141.186 111.548 141.186 112.34L139.47 111.608C139.47 110.504 139.682 109.504 140.106 108.608C140.538 107.712 141.17 107 142.002 106.472C142.834 105.936 143.858 105.668 145.074 105.668C146.034 105.668 146.826 105.828 147.45 106.148C148.074 106.468 148.57 106.876 148.938 107.372C149.306 107.868 149.578 108.396 149.754 108.956C149.93 109.516 150.042 110.048 150.09 110.552C150.146 111.048 150.174 111.452 150.174 111.764V119H147.246ZM138.258 119V101.72H140.838V110.816H141.186V119H138.258Z" fill="#E2FAFF"/>
</g>
<defs>
<filter id="filter0_d_2124_796" x="0" y="0" width="227" height="227" filterUnits="userSpaceOnUse" color-interpolation-filters="sRGB">
<feFlood flood-opacity="0" result="BackgroundImageFix"/>
<feColorMatrix in="SourceAlpha" type="matrix" values="0 0 0 0 0 0 0 0 0 0 0 0 0 0 0 0 0 0 127 0" result="hardAlpha"/>
<feOffset dx="2" dy="4"/>
<feGaussianBlur stdDeviation="3"/>
<feComposite in2="hardAlpha" operator="out"/>
<feColorMatrix type="matrix" values="0 0 0 0 0.766667 0 0 0 0 0.334458 0 0 0 0 0.239583 0 0 0 0.46 0"/>
<feBlend mode="normal" in2="BackgroundImageFix" result="effect1_dropShadow_2124_796"/>
<feBlend mode="normal" in="SourceGraphic" in2="effect1_dropShadow_2124_796" result="shape"/>
</filter>
</defs>
</svg>
